<svg xmlns="http://www.w3.org/2000/svg" xmlns:xlink="http://www.w3.org/1999/xlink" viewBox="0 0 1600 900" width="1600" height="900" font-family="'IBM VGA', monospace">
<!-- eboards (main)
     drawn in room coordinates (the whole 1600x900 room), so it lands where it goes. -->
  <g transform="rotate(-18 40 800)"><rect x="12" y="770" width="40" height="56" fill="#1d6a3a"/><rect x="20" y="780" width="14" height="14" fill="#111"/><g fill="#d4a020"><rect x="18" y="812" width="30" height="3"/></g></g>
  <g transform="rotate(12 90 790)"><rect x="66" y="760" width="48" height="64" fill="#2a4a8a"/><rect x="74" y="770" width="20" height="10" fill="#ccc"/><rect x="74" y="786" width="10" height="10" fill="#111"/></g>
  <g transform="rotate(-4 60 800)"><rect x="36" y="780" width="36" height="46" fill="#6a2a2a"/><rect x="42" y="788" width="12" height="12" fill="#111"/></g>
  <rect x="-10" y="810" width="140" height="100" fill="#a8804e"/>
  <path d="M-10 810 l-6 -16 l40 10z M130 810 l14 -18 l-40 8z" fill="#b8905e"/>
  <text x="4" y="846" font-size="11" fill="#3a2410">E-WASTE</text><text x="4" y="862" font-size="9" fill="#3a2410">(DO NOT)</text>
</svg>
