<svg xmlns="http://www.w3.org/2000/svg" xmlns:xlink="http://www.w3.org/1999/xlink" viewBox="0 0 1600 900" width="1600" height="900" font-family="'IBM VGA', monospace">
<!-- kitchen (hallway): kitchenette
     drawn in room coordinates (the whole 1600x900 room), so it lands where it goes. -->
<defs>
  <pattern id="h-tile" width="26" height="20" patternUnits="userSpaceOnUse"><rect width="26" height="20" fill="#b9b7ac"/><path d="M0 19.5h26M25.5 0v20" stroke="#6d6b62" stroke-width="1"/></pattern>
</defs>
  <rect x="1010" y="420" width="452" height="140" fill="url(#h-tile)"/>
  <rect x="1010" y="420" width="452" height="140" fill="#0c140f" opacity=".55"/>
  <rect x="1010" y="220" width="444" height="150" fill="#24332c"/>
  <g fill="none" stroke="#18231d" stroke-width="3"><rect x="1018" y="228" width="130" height="134"/><rect x="1156" y="228" width="130" height="134"/></g>
  <!-- the open cabinet -->
  <rect x="1294" y="228" width="140" height="134" fill="#0c100e"/>
  <rect x="1294" y="294" width="140" height="4" fill="#24332c"/>
  <g><rect x="1306" y="256" width="26" height="38" fill="#c33"/><text x="1308" y="276" font-size="6" fill="#fff">CEREAL</text>
     <path d="M1344 278 h22 l-2 16 h-18z" fill="#f4f0e6"/><path d="M1344 262 h22 l-2 16 h-18z" fill="#f4f0e6"/><rect x="1344" y="260" width="22" height="3" fill="#c33"/><rect x="1344" y="276" width="22" height="3" fill="#e0a030"/>
     <path d="M1380 332 h22 l-2 16 h-18z" fill="#f4f0e6"/><rect x="1380" y="330" width="22" height="3" fill="#c33"/>
     <rect x="1308" y="320" width="10" height="28" fill="#111"/><path d="M1311 324 l1 18 M1314 323 l0 20" stroke="#6dff5a" stroke-width="1"/></g>
  <polygon points="1434,228 1456,222 1456,368 1434,362" fill="#2c3d35"/>
  <g fill="#8a8a8a"><rect x="1136" y="340" width="4" height="14"/><rect x="1162" y="340" width="4" height="14"/></g>
  <!-- counter + base cabinets -->
  <rect x="1000" y="560" width="464" height="16" fill="#c9c2b0"/><rect x="1000" y="574" width="464" height="3" fill="#8a8474"/>
  <rect x="1006" y="577" width="456" height="159" fill="#22302a"/>
  <g fill="none" stroke="#18231d" stroke-width="3"><rect x="1014" y="586" width="130" height="140"/><rect x="1152" y="586" width="130" height="140"/></g>
  <g fill="#8a8a8a"><rect x="1128" y="600" width="4" height="16"/><rect x="1166" y="600" width="4" height="16"/></g>
  <!-- ramen + cans on the counter -->
  <path d="M1200 530 h24 l-3 30 h-18z" fill="#f4f0e6"/><rect x="1200" y="528" width="24" height="5" fill="#c33"/>
  <path d="M1204 506 h20 l-2 22 h-16z" fill="#f4f0e6"/><rect x="1204" y="504" width="20" height="4" fill="#e0a030"/>
  <rect x="1236" y="530" width="12" height="30" rx="2" fill="#111"/><path d="M1239 535 l2 18 M1242 534 l1 19 M1245 535 l-1 18" stroke="#6dff5a" stroke-width="1.2"/>
  <rect x="1254" y="534" width="12" height="26" rx="2" fill="#111"/><path d="M1257 538 l2 16 M1260 537 l1 17" stroke="#6dff5a" stroke-width="1.2"/>
</svg>
