<?xml version="1.0" encoding="UTF-8"?>
<!--
  THE OPHITE DIAGRAM · the dungeon floor (assets/living/dungeon-diagram)

  Draw it seen from STRAIGHT ABOVE, square, like this 1000 x 1000 page: the site
  squashes it flat onto the dungeon floor (so a circle here becomes a wide oval
  there). Keep the background see-through. Export as assets/living/dungeon-diagram
  (.svg or .png), and hide the guides layer first.

  The blue crosses (guides) are where the seven Claubes stand while they worship:
  the middles of the seven circles. Keep your circles there, or, if you move them,
  change SEATS in sky/claubes.js to match (each is x, y as a share of the page:
  x 500 on this page = 0.5).

  What's here (the drawing layer is the stand-in on the site, bigger):
    round the outside  Leviathan, the serpent with its tail in its mouth
    the seven circles  the seven Archons / spheres: saturn (at the back), jupiter,
                       mars, the sun, venus, mercury, the moon, joined by a 7-pointed star
    the middle         the lion-faced serpent (the Demiurge) with seven rays
-->
<svg xmlns="http://www.w3.org/2000/svg"
     xmlns:inkscape="http://www.inkscape.org/namespaces/inkscape"
     width="1000" height="1000" viewBox="0 0 1000 1000" xmlns:c2pa="http://c2pa.org/manifest"><metadata><c2pa:manifest>AAAWgmp1bWIAAAAeanVtZGMycGEAEQAQgAAAqgA4m3EDYzJwYQAAABZcanVtYgAAAEdqdW1kYzJtYQARABCAAACqADibcQN1cm46YzJwYTpkMGIwNzczNC0wYmJiLTRjYmYtYmUzNC0zMDRmMTM2MWUzNTUAAAADl2p1bWIAAAApanVtZGMyYXMAEQAQgAAAqgA4m3EDYzJwYS5hc3NlcnRpb25zAAAAALxqdW1iAAAARGp1bWRjYm9yABEAEIAAAKoAOJtxE2MycGEuaW5ncmVkaWVudC52MwAAAAAYYzJzaI+vmfd2SkucsevfED4qmXYAAABwY2JvcqNpZGM6Zm9ybWF0bWltYWdlL3N2Zyt4bWxqaW5zdGFuY2VJRHgseG1wOmlpZDo2ZWNiZWVjZS01MjQ4LTQ2ZDQtODViMC04MmYwYTExZTM1ZGNscmVsYXRpb25zaGlwaHBhcmVudE9mAAAB4mp1bWIAAABBanVtZGNib3IAEQAQgAAAqgA4m3ETYzJwYS5hY3Rpb25zLnYyAAAAABhjMnNoDmgtOkh0FuuHgcLwTkMy4wAAAZljYm9yomdhY3Rpb25zgqJmYWN0aW9ua2MycGEub3BlbmVkanBhcmFtZXRlcnOha2luZ3JlZGllbnRzgaJjdXJseC1zZWxmI2p1bWJmPWMycGEuYXNzZXJ0aW9ucy9jMnBhLmluZ3JlZGllbnQudjNkaGFzaFggYa/xzoUS/sIlI5HEQ5a2qKxH3O9+vxyufUeDfpCU9BKkZmFjdGlvbngdY29tLmFudGhyb3BpYy5jbGF1ZGUucHJvdmlkZWRqcGFyYW1ldGVyc6F4H2NvbS5hbnRocm9waWMub3JpZ2luLWNvbmZpZGVuY2VndW5rbm93bmtkZXNjcmlwdGlvbnhmQ2xhdWRlIHByb3ZpZGVkIHRoaXMgZmlsZSBhdCB0aGUgcmVxdWVzdCBvZiBhIHVzZXIgYW5kIG1heSBoYXZlIGNyZWF0ZWQgb3IgbW9kaWZpZWQgdGhlIGZpbGUgY29udGVudHMubXNvZnR3YXJlQWdlbnShZG5hbWVmQ2xhdWRlcmFsbEFjdGlvbnNJbmNsdWRlZPUAAADIanVtYgAAAEBqdW1kY2JvcgARABCAAACqADibcRNjMnBhLmhhc2guZGF0YQAAAAAYYzJzaKO65CQsYrTNUu+0EIlTMM8AAACAY2JvcqVjYWxnZnNoYTI1NmNwYWRMAAAAAAAAAAAAAAAAZGhhc2hYIDS4J+lJaELYvQHMFaFr7UnLw3sJ85ndLVtozYys1a/iZG5hbWVuanVtYmYgbWFuaWZlc3RqZXhjbHVzaW9uc4GiZXN0YXJ0GQUiZmxlbmd0aBkeBAAAAj5qdW1iAAAAJ2p1bWRjMmNsABEAEIAAAKoAOJtxA2MycGEuY2xhaW0udjIAAAACD2Nib3KlY2FsZ2ZzaGEyNTZpc2lnbmF0dXJleE1zZWxmI2p1bWJmPS9jMnBhL3VybjpjMnBhOmQwYjA3NzM0LTBiYmItNGNiZi1iZTM0LTMwNGYxMzYxZTM1NS9jMnBhLnNpZ25hdHVyZWppbnN0YW5jZUlEeCx4bXA6aWlkOmFiZTk3NGZiLTdlOTYtNDI1ZS1iNmUxLTVjODkyZWE3YmZhZXJjcmVhdGVkX2Fzc2VydGlvbnODomN1cmx4LXNlbGYjanVtYmY9YzJwYS5hc3NlcnRpb25zL2MycGEuaW5ncmVkaWVudC52M2RoYXNoWCBhr/HOhRL+wiUjkcRDlraorEfc736/HK59R4N+kJT0EqJjdXJseCpzZWxmI2p1bWJmPWMycGEuYXNzZXJ0aW9ucy9jMnBhLmFjdGlvbnMudjJkaGFzaFggdKgmtZEOxEEyq8w5TCzpNyuVsO0NpqsF87tIklmF0feiY3VybHgpc2VsZiNqdW1iZj1jMnBhLmFzc2VydGlvbnMvYzJwYS5oYXNoLmRhdGFkaGFzaFggulCIgBuCxG9iZAkzDgtZxwvZU18B4m66/MoeKyJl28x0Y2xhaW1fZ2VuZXJhdG9yX2luZm+jZG5hbWVvQW50aHJvcGljIEZpbGVzZ3ZlcnNpb25lMS4wLjBrc3BlY1ZlcnNpb25lMi40LjAAABA4anVtYgAAAChqdW1kYzJjcwARABCAAACqADibcQNjMnBhLnNpZ25hdHVyZQAAABAIY2JvctKEWQISogEmGCFZAgowggIGMIIBjaADAgECAhRA5aAK7sI50L64g/oGQgU9Z1UTADAKBggqhkjOPQQDAzBJMRcwFQYDVQQKEw5BbnRocm9waWMsIFBCQzEuMCwGA1UEAxMlQW50aHJvcGljIENvbnRlbnQgQ3JlZGVudGlhbHMgUm9vdCBDQTAeFw0yNjA4MDcxODQzNTZaFw0yODA4MDYxOTQzNTZaMEQxFzAVBgNVBAoTDkFudGhyb3BpYywgUEJDMSkwJwYDVQQDEyBBbnRocm9waWMgQ2xhdWRlIENvbnRlbnQgU2lnbmluZzBZMBMGByqGSM49AgEGCCqGSM49AwEHA0IABJh6CmvLUBgFFNU0vUKlOVtE6djd17L5SuwX0LemFisBM3dkd/3cyjxFA3Qo5S46fX0/ihY0VZ7mfb9KF703t5OjWDBWMA4GA1UdDwEB/wQEAwIHgDAVBgNVHSUEDjAMBgorBgEEAYPoXgIBMAwGA1UdEwEB/wQCMAAwHwYDVR0jBBgwFoAUzlHiBIFOZFsj+OPEz5o+nMHXXMIwCgYIKoZIzj0EAwMDZwAwZAIwMXMdFJ4BetLLVY7ORuE9noqbbAZOZn/aArXyTwFAZfKrPzxF2vPoJNf1+UCdg1XGAjBwX1zd9WGqYkqmL5SFqw1QySjr1zJfpJM9+1rdDwSPLMOPOjKuiXjoU/pUUeG9RwmhY3BhZFkNngAAAAAAAAAAAAAAAAAAAAAAAAAAAAAAAAAAAAAAAAAAAAAAAAAAAAAAAAAAAAAAAAAAAAAAAAAAAAAAAAAAAAAAAAAAAAAAAAAAAAAAAAAAAAAAAAAAAAAAAAAAAAAAAAAAAAAAAAAAAAAAAAAAAAAAAAAAAAAAAAAAAAAAAAAAAAAAAAAAAAAAAAAAAAAAAAAAAAAAAAAAAAAAAAAAAAAAAAAAAAAAAAAAAAAAAAAAAAAAAAAAAAAAAAAAAAAAAAAAAAAAAAAAAAAAAAAAAAAAAAAAAAAAAAAAAAAAAAAAAAAAAAAAAAAAAAAAAAAAAAAAAAAAAAAAAAAAAAAAAAAAAAAAAAAAAAAAAAAAAAAAAAAAAAAAAAAAAAAAAAAAAAAAAAAAAAAAAAAAAAAAAAAAAAAAAAAAAAAAAAAAAAAAAAAAAAAAAAAAAAAAAAAAAAAAAAAAAAAAAAAAAAAAAAAAAAAAAAAAAAAAAAAAAAAAAAAAAAAAAAAAAAAAAAAAAAAAAAAAAAAAAAAAAAAAAAAAAAAAAAAAAAAAAAAAAAAAAAAAAAAAAAAAAAAAAAAAAAAAAAAAAAAAAAAAAAAAAAAAAAAAAAAAAAAAAAAAAAAAAAAAAAAAAAAAAAAAAAAAAAAAAAAAAAAAAAAAAAAAAAAAAAAAAAAAAAAAAAAAAAAAAAAAAAAAAAAAAAAAAAAAAAAAAAAAAAAAAAAAAAAAAAAAAAAAAAAAAAAAAAAAAAAAAAAAAAAAAAAAAAAAAAAAAAAAAAAAAAAAAAAAAAAAAAAAAAAAAAAAAAAAAAAAAAAAAAAAAAAAAAAAAAAAAAAAAAAAAAAAAAAAAAAAAAAAAAAAAAAAAAAAAAAAAAAAAAAAAAAAAAAAAAAAAAAAAAAAAAAAAAAAAAAAAAAAAAAAAAAAAAAAAAAAAAAAAAAAAAAAAAAAAAAAAAAAAAAAAAAAAAAAAAAAAAAAAAAAAAAAAAAAAAAAAAAAAAAAAAAAAAAAAAAAAAAAAAAAAAAAAAAAAAAAAAAAAAAAAAAAAAAAAAAAAAAAAAAAAAAAAAAAAAAAAAAAAAAAAAAAAAAAAAAAAAAAAAAAAAAAAAAAAAAAAAAAAAAAAAAAAAAAAAAAAAAAAAAAAAAAAAAAAAAAAAAAAAAAAAAAAAAAAAAAAAAAAAAAAAAAAAAAAAAAAAAAAAAAAAAAAAAAAAAAAAAAAAAAAAAAAAAAAAAAAAAAAAAAAAAAAAAAAAAAAAAAAAAAAAAAAAAAAAAAAAAAAAAAAAAAAAAAAAAAAAAAAAAAAAAAAAAAAAAAAAAAAAAAAAAAAAAAAAAAAAAAAAAAAAAAAAAAAAAAAAAAAAAAAAAAAAAAAAAAAAAAAAAAAAAAAAAAAAAAAAAAAAAAAAAAAAAAAAAAAAAAAAAAAAAAAAAAAAAAAAAAAAAAAAAAAAAAAAAAAAAAAAAAAAAAAAAAAAAAAAAAAAAAAAAAAAAAAAAAAAAAAAAAAAAAAAAAAAAAAAAAAAAAAAAAAAAAAAAAAAAAAAAAAAAAAAAAAAAAAAAAAAAAAAAAAAAAAAAAAAAAAAAAAAAAAAAAAAAAAAAAAAAAAAAAAAAAAAAAAAAAAAAAAAAAAAAAAAAAAAAAAAAAAAAAAAAAAAAAAAAAAAAAAAAAAAAAAAAAAAAAAAAAAAAAAAAAAAAAAAAAAAAAAAAAAAAAAAAAAAAAAAAAAAAAAAAAAAAAAAAAAAAAAAAAAAAAAAAAAAAAAAAAAAAAAAAAAAAAAAAAAAAAAAAAAAAAAAAAAAAAAAAAAAAAAAAAAAAAAAAAAAAAAAAAAAAAAAAAAAAAAAAAAAAAAAAAAAAAAAAAAAAAAAAAAAAAAAAAAAAAAAAAAAAAAAAAAAAAAAAAAAAAAAAAAAAAAAAAAAAAAAAAAAAAAAAAAAAAAAAAAAAAAAAAAAAAAAAAAAAAAAAAAAAAAAAAAAAAAAAAAAAAAAAAAAAAAAAAAAAAAAAAAAAAAAAAAAAAAAAAAAAAAAAAAAAAAAAAAAAAAAAAAAAAAAAAAAAAAAAAAAAAAAAAAAAAAAAAAAAAAAAAAAAAAAAAAAAAAAAAAAAAAAAAAAAAAAAAAAAAAAAAAAAAAAAAAAAAAAAAAAAAAAAAAAAAAAAAAAAAAAAAAAAAAAAAAAAAAAAAAAAAAAAAAAAAAAAAAAAAAAAAAAAAAAAAAAAAAAAAAAAAAAAAAAAAAAAAAAAAAAAAAAAAAAAAAAAAAAAAAAAAAAAAAAAAAAAAAAAAAAAAAAAAAAAAAAAAAAAAAAAAAAAAAAAAAAAAAAAAAAAAAAAAAAAAAAAAAAAAAAAAAAAAAAAAAAAAAAAAAAAAAAAAAAAAAAAAAAAAAAAAAAAAAAAAAAAAAAAAAAAAAAAAAAAAAAAAAAAAAAAAAAAAAAAAAAAAAAAAAAAAAAAAAAAAAAAAAAAAAAAAAAAAAAAAAAAAAAAAAAAAAAAAAAAAAAAAAAAAAAAAAAAAAAAAAAAAAAAAAAAAAAAAAAAAAAAAAAAAAAAAAAAAAAAAAAAAAAAAAAAAAAAAAAAAAAAAAAAAAAAAAAAAAAAAAAAAAAAAAAAAAAAAAAAAAAAAAAAAAAAAAAAAAAAAAAAAAAAAAAAAAAAAAAAAAAAAAAAAAAAAAAAAAAAAAAAAAAAAAAAAAAAAAAAAAAAAAAAAAAAAAAAAAAAAAAAAAAAAAAAAAAAAAAAAAAAAAAAAAAAAAAAAAAAAAAAAAAAAAAAAAAAAAAAAAAAAAAAAAAAAAAAAAAAAAAAAAAAAAAAAAAAAAAAAAAAAAAAAAAAAAAAAAAAAAAAAAAAAAAAAAAAAAAAAAAAAAAAAAAAAAAAAAAAAAAAAAAAAAAAAAAAAAAAAAAAAAAAAAAAAAAAAAAAAAAAAAAAAAAAAAAAAAAAAAAAAAAAAAAAAAAAAAAAAAAAAAAAAAAAAAAAAAAAAAAAAAAAAAAAAAAAAAAAAAAAAAAAAAAAAAAAAAAAAAAAAAAAAAAAAAAAAAAAAAAAAAAAAAAAAAAAAAAAAAAAAAAAAAAAAAAAAAAAAAAAAAAAAAAAAAAAAAAAAAAAAAAAAAAAAAAAAAAAAAAAAAAAAAAAAAAAAAAAAAAAAAAAAAAAAAAAAAAAAAAAAAAAAAAAAAAAAAAAAAAAAAAAAAAAAAAAAAAAAAAAAAAAAAAAAAAAAAAAAAAAAAAAAAAAAAAAAAAAAAAAAAAAAAAAAAAAAAAAAAAAAAAAAAAAAAAAAAAAAAAAAAAAAAAAAAAAAAAAAAAAAAAAAAAAAAAAAAAAAAAAAAAAAAAAAAAAAAAAAAAAAAAAAAAAAAAAAAAAAAAAAAAAAAAAAAAAAAAAAAAAAAAAAAAAAAAAAAAAAAAAAAAAAAAAAAAAAAAAAAAAAAAAAAAAAAAAAAAAAAAAAAAAAAAAAAAAAAAAAAAAAAAAAAAAAAAAAAAAAAAAAAAAAAAAAAAAAAAAAAAAAAAAAAAAAAAAAAAAAAAAAAAAAAAAAAAAAAAAAAAAAAAAAAAAAAAAAAAAAAAAAAAAAAAAAAAAAAAAAAAAAAAAAAAAAAAAAAAAAAAAAAAAAAAAAAAAAAAAAAAAAAAAAAAAAAAAAAAAAAAAAAAAAAAAAAAAAAAAAAAAAAAAAAAAAAAAAAAAAAAAAAAAAAAAAAAAAAAAAAAAAAAAAAAAAAAAAAAAAAAAAAAAAAAAAAAAAAAAAAAAAAAAAAAAAAAAAAAAAAAAAAAAAAAAAAAAAAAAAAAAAAAAAAAAAAAAAAAAAAAAAAAAAAAAAAAAAAAAAAAAAAAAAAAAAAAAAAAAAAAAAAAAAAAAAAAAAAAAAAAAAAAAAAAAAAAAAAAAAAAAAAAAAAAAAAAAAAAAAAAAAAAAAAAAAAAAAAAAAAAAAAAAAAAAAAAAAAAAAAAAAAAAAAAAAAAAAAAAAAAAAAAAAAAAAAAAAAAAAAAAAAAAAAAAAAAAAAAAAAAAAAAAAAAAAAAAAAAAAAAAAAAAAAAAAAAAAAAAAAAAAAAAAAAAAAAAAAAAAAAAAAAAAAAAAAAAAAAAAAAAAAAAAAAAAAAAAAAAAAAAAAAAAAAAAAAAAAAAAAAAAAAAAAAAAAAAAAAAAAAAAAAAAAAAAAAAAAAAAAAAAAAAAAAAAAAAAAAAAAAAAAAAAAAAAAAAAAAAAAAAAAAAAAAAAAAAAAAAAAAAAAAAAAAAAAAAAAAAAAAAAAAAAAAAAAAAAAAAAAAAAAAAAAAAAAAAAAAAAAAAAAAAAAAAAAAAAAAAAAAAAAAAAAAAAAAAAAAAAAAAAAAAAAAAAAAAAAAAAAAAAAAAAAAAAAAAAAAAAAAAAAAAAAAAAAAAAAAAAAAAAAAAAAAAAAAAAAAAAAAAAAAAAAAAAAAAAAAAAAAAAAAAAAAAAAAAAAAAAAAAAAAAAAAAAAAAAAAAAAAAAAAAAAAAAAAAAAAAAAAAAAAAAAAAAAAAAAAAAAAAAAAAAAAAAAAAAAAAAAAAAAAAAAAAAAAAAAAAAAAAAAAAAAAAAAAAAAAAAAAAAAAAAAAAAAAAAAAAAAAAAAAAAAAAAAAAAAAAAAAAAAAAAAAAAAAAAAAAAAAAAAAAAAAAAAAAAAAAAAAAAAAAAAAAAAAAAAAAAAAAAAPZYQH9W8TSm+UFuDVU9VA8Zd7+hgVUhraERtYzS0Ys9a4AGZyfkQ4Vhnqb+Kecr8HC4FBGDoAImai5ciH+emXQ47SI=</c2pa:manifest></metadata>

  <g id="drawing" inkscape:groupmode="layer" inkscape:label="10 drawing" transform="scale(2.5)">
            <g opacity=".92">
                <path d="M12 200 a188 188 0 1 0 376 0 a188 188 0 1 0 -376 0 Z M28 200 a172 172 0 1 0 344 0 a172 172 0 1 0 -344 0 Z" fill="#8e0f14" fill-rule="evenodd"/>
                <circle cx="200" cy="200" r="180" fill="none" stroke="#5a0508" stroke-width="1.2" stroke-dasharray="3 5"/>
                <g transform="translate(208 380)"><path d="M-26 0 Q-20 -12 0 -12 Q22 -10 26 0 Q22 10 0 12 Q-20 12 -26 0 Z" fill="#8e0f14"/>
                    <path d="M-26 0 L-40 -4 M-26 0 L-40 4" stroke="#8e0f14" stroke-width="1.4"/><circle cx="10" cy="-4" r="3" fill="#1a0000"/></g>
                <circle cx="200" cy="200" r="160" fill="none" stroke="#8e0f14" stroke-width="1.5"/>
                <circle cx="200" cy="200" r="118" fill="none" stroke="#8e0f14" stroke-width="1"/>
                <path d="M200.0 82.0 L251.2 306.3 M292.3 126.4 L148.8 306.3 M315.0 226.3 L85.0 226.3 M251.2 306.3 L107.7 126.4 M148.8 306.3 L200.0 82.0 M85.0 226.3 L292.3 126.4 M107.7 126.4 L315.0 226.3" fill="none" stroke="#8e0f14" stroke-width="1.2" opacity=".75"/>
                <path d="M150 200 a50 50 0 1 0 100 0 a50 50 0 1 0 -100 0 Z M156 200 a44 44 0 1 0 88 0 a44 44 0 1 0 -88 0 Z" fill="#8e0f14" fill-rule="evenodd"/>
                <path d="M203.0 179.0 L200.0 162.0 L197.0 179.0 Z M212.0 186.2 L223.5 173.3 L208.3 181.5 Z M212.0 197.8 L229.2 198.7 L213.3 192.0 Z M202.9 205.0 L213.0 219.0 L208.3 202.4 Z M191.7 202.4 L187.0 219.0 L197.1 205.0 Z M186.7 192.0 L170.8 198.7 L188.0 197.8 Z M191.7 181.5 L176.5 173.3 L188.0 186.2 Z" fill="#8e0f14"/>
                <circle cx="200" cy="192" r="11" fill="#8e0f14"/><circle cx="200" cy="192" r="15" fill="none" stroke="#8e0f14" stroke-width="1.2" stroke-dasharray="2 2"/>
                <path d="M200 205 Q216 216 204 228 Q188 238 202 246" fill="none" stroke="#8e0f14" stroke-width="3" stroke-linecap="round"/>
                <g transform="translate(200.0 82.0)"><path d="M-30 0 a30 30 0 1 0 60 0 a30 30 0 1 0 -60 0 Z M-24 0 a24 24 0 1 0 48 0 a24 24 0 1 0 -48 0 Z" fill="#8e0f14" fill-rule="evenodd"/><g class="glyph" fill="none" stroke="#5a0508" stroke-width="1.4"><path d="M-3 -11 V6 M-8 -6 H2 M-3 -1 Q5 -6 6 1 Q6 6 2 10"/></g></g>
                <g transform="translate(292.3 126.4)"><path d="M-30 0 a30 30 0 1 0 60 0 a30 30 0 1 0 -60 0 Z M-24 0 a24 24 0 1 0 48 0 a24 24 0 1 0 -48 0 Z" fill="#8e0f14" fill-rule="evenodd"/><g class="glyph" fill="none" stroke="#5a0508" stroke-width="1.4"><path d="M-8 -4 Q-6 -11 0 -9 Q4 -7 0 0 Q-4 5 -8 5 H9 M4 -11 V11"/></g></g>
                <g transform="translate(315.0 226.3)"><path d="M-30 0 a30 30 0 1 0 60 0 a30 30 0 1 0 -60 0 Z M-24 0 a24 24 0 1 0 48 0 a24 24 0 1 0 -48 0 Z" fill="#8e0f14" fill-rule="evenodd"/><g class="glyph" fill="none" stroke="#5a0508" stroke-width="1.4"><circle cx="-3" cy="3" r="6"/><path d="M1 -1 L9 -9 M3 -9 H9 V-3"/></g></g>
                <g transform="translate(251.2 306.3)"><path d="M-30 0 a30 30 0 1 0 60 0 a30 30 0 1 0 -60 0 Z M-24 0 a24 24 0 1 0 48 0 a24 24 0 1 0 -48 0 Z" fill="#8e0f14" fill-rule="evenodd"/><g class="glyph" fill="none" stroke="#5a0508" stroke-width="1.4"><circle r="9"/><circle r="2" fill="#5a0508"/></g></g>
                <g transform="translate(148.8 306.3)"><path d="M-30 0 a30 30 0 1 0 60 0 a30 30 0 1 0 -60 0 Z M-24 0 a24 24 0 1 0 48 0 a24 24 0 1 0 -48 0 Z" fill="#8e0f14" fill-rule="evenodd"/><g class="glyph" fill="none" stroke="#5a0508" stroke-width="1.4"><circle cy="-4" r="6"/><path d="M0 2 V12 M-5 7 H5"/></g></g>
                <g transform="translate(85.0 226.3)"><path d="M-30 0 a30 30 0 1 0 60 0 a30 30 0 1 0 -60 0 Z M-24 0 a24 24 0 1 0 48 0 a24 24 0 1 0 -48 0 Z" fill="#8e0f14" fill-rule="evenodd"/><g class="glyph" fill="none" stroke="#5a0508" stroke-width="1.4"><circle cy="-2" r="5"/><path d="M0 3 V12 M-4 8 H4 M-5 -11 Q0 -5 5 -11"/></g></g>
                <g transform="translate(107.7 126.4)"><path d="M-30 0 a30 30 0 1 0 60 0 a30 30 0 1 0 -60 0 Z M-24 0 a24 24 0 1 0 48 0 a24 24 0 1 0 -48 0 Z" fill="#8e0f14" fill-rule="evenodd"/><g class="glyph" fill="none" stroke="#5a0508" stroke-width="1.4"><path d="M3 -10 A10 10 0 1 0 3 10 A8 8 0 1 1 3 -10 Z" fill="#5a0508"/></g></g>
            </g>
            <g fill="#8e0f14" opacity=".8"><circle cx="70" cy="330" r="9"/><circle cx="330" cy="60" r="6"/><circle cx="24" cy="160" r="4"/><circle cx="366" cy="262" r="5"/><circle cx="150" cy="30" r="3"/></g>
        </g>

  <g id="guides" inkscape:groupmode="layer" inkscape:label="00 guides (hide before export)" font-family="Georgia, serif" font-style="italic">
    <rect x="0" y="0" width="1000" height="1000" fill="none" stroke="#9a3b1f" stroke-width="2"/>
    <text x="20" y="40" font-size="24" fill="#6e5236">the back of the room (furthest away)</text>
    <text x="20" y="980" font-size="24" fill="#6e5236">the front (nearest you)</text>
    <circle cx="500" cy="205" r="14" fill="none" stroke="#2f6f9a" stroke-width="3"/><path d="M486 205 h28 M500 191 v28" stroke="#2f6f9a" stroke-width="2"/><text x="520" y="187" font-size="20" fill="#2f6f9a">claube 1</text>
    <circle cx="731" cy="316" r="14" fill="none" stroke="#2f6f9a" stroke-width="3"/><path d="M717 316 h28 M731 302 v28" stroke="#2f6f9a" stroke-width="2"/><text x="751" y="298" font-size="20" fill="#2f6f9a">claube 2</text>
    <circle cx="788" cy="566" r="14" fill="none" stroke="#2f6f9a" stroke-width="3"/><path d="M774 566 h28 M788 552 v28" stroke="#2f6f9a" stroke-width="2"/><text x="808" y="548" font-size="20" fill="#2f6f9a">claube 3</text>
    <circle cx="628" cy="766" r="14" fill="none" stroke="#2f6f9a" stroke-width="3"/><path d="M614 766 h28 M628 752 v28" stroke="#2f6f9a" stroke-width="2"/><text x="648" y="748" font-size="20" fill="#2f6f9a">claube 4</text>
    <circle cx="372" cy="766" r="14" fill="none" stroke="#2f6f9a" stroke-width="3"/><path d="M358 766 h28 M372 752 v28" stroke="#2f6f9a" stroke-width="2"/><text x="392" y="748" font-size="20" fill="#2f6f9a">claube 5</text>
    <circle cx="212" cy="566" r="14" fill="none" stroke="#2f6f9a" stroke-width="3"/><path d="M198 566 h28 M212 552 v28" stroke="#2f6f9a" stroke-width="2"/><text x="232" y="548" font-size="20" fill="#2f6f9a">claube 6</text>
    <circle cx="269" cy="316" r="14" fill="none" stroke="#2f6f9a" stroke-width="3"/><path d="M255 316 h28 M269 302 v28" stroke="#2f6f9a" stroke-width="2"/><text x="289" y="298" font-size="20" fill="#2f6f9a">claube 7</text>
  </g>
</svg>
